<svg xmlns="http://www.w3.org/2000/svg" width="32.815" height="31.123" viewBox="0 0 32.815 31.123">
  <path id="carro-de-la-compra" d="M31.466,27H5.809l-.381-4.4a1.367,1.367,0,0,0-1.342-1.27H1.348a1.4,1.4,0,0,0,0,2.789H2.854C3.677,33.615,1.55,9.092,4.4,42a5.418,5.418,0,0,0,1.941,3.635,4.245,4.245,0,0,0,3.217,6.829A4.215,4.215,0,0,0,13.4,46.794h7.376a4.215,4.215,0,0,0,3.842,5.667,4.23,4.23,0,0,0,0-8.456H9.571a2.5,2.5,0,0,1-2.3-1.57l21.537-1.31a1.361,1.361,0,0,0,1.228-1.054l2.738-11.334A1.385,1.385,0,0,0,31.466,27ZM9.562,49.671a1.44,1.44,0,1,1,1.39-1.439A1.417,1.417,0,0,1,9.562,49.671Zm15.059,0a1.44,1.44,0,1,1,1.39-1.439A1.417,1.417,0,0,1,24.621,49.671ZM27.661,38.4,6.907,39.663l-.856-9.869H29.74Z" transform="translate(0 -21.338)" fill="#f9f4f5"/>
</svg>
