<svg xmlns="http://www.w3.org/2000/svg" width="11.435" height="17.401" viewBox="0 0 11.435 17.401">
  <g id="Grupo_14" data-name="Grupo 14" transform="translate(0 0)">
    <path id="Intersección_1" data-name="Intersección 1" d="M4.142,3.759C2.9,3.384,1.39,2.017,0,0H7.421l.3.577a1.652,1.652,0,0,1-.479,2.009l-1.6,1.035a1.526,1.526,0,0,1-.846.242A2.276,2.276,0,0,1,4.142,3.759Z" transform="translate(3.556 13.539)" fill="#ff4b55"/>
    <path id="Intersección_2" data-name="Intersección 2" d="M2.816,5.724A22.022,22.022,0,0,1,1.377,3.307,21.71,21.71,0,0,1,0,0H2.892A6.955,6.955,0,0,0,5.327,4.017,1.222,1.222,0,0,0,7,3.563a1.209,1.209,0,0,1,2.178.1l1.062,2.065Z" transform="translate(0.704 7.814)" fill="#41479b"/>
    <path id="Intersección_3" data-name="Intersección 3" d="M.7,7.814c-1-3.13-.943-5.77.261-6.6L2.557.181A1.287,1.287,0,0,1,4.346.719L5.7,3.361A1.454,1.454,0,0,1,4.69,5.528,1.337,1.337,0,0,0,3.5,6.926a4.038,4.038,0,0,0,.087.889Z" fill="#ffe15a"/>
  </g>
</svg>
